#!OML:ASF X:\für Bonn\!DataBase\2005_08_10_Bjorn_Final\c3d\bjorn.ASF
:FULLY-SPECIFIED
:DEGREES
168
root -21.4952 19.4452 0.214785 -183.822 -86.2083 -171.37
lowerback -13.278 3.00625 -1.40853
upperback 4.65241 4.66673 -3.56791
thorax 12.8215 2.23621 -2.01828
lowerneck -3.14799 -4.33758 4.744
upperneck 23.0827 -7.27367 0.190097
head 7.4559 -3.32938 -1.28727
rclavicle 4.17448e-014 -2.8625e-014
rhumerus -3.48678 -4.3483 -63.6691
rradius 115.439
rwrist -27.2412
rhand -13.1307 8.91863
rfingers 7.12502
rthumb 12.9673 -20.6584
lclavicle 4.17448e-014 -2.8625e-014
lhumerus -27.639 20.2369 74.9701
lradius 15.7258
lwrist -43.607
lhand -15.2647 -5.98604
lfingers 7.12502
lthumb 10.9095 23.7106
rfemur -13.0869 -13.2321 17.1175
rtibia 25.2487
rfoot -7.55752 22.3009
rtoes 6.50376
lfemur -10.7276 15.4096 -16.903
ltibia 23.7801
lfoot -9.7457 -13.6421
ltoes 2.80791
169
root -21.4953 19.4453 0.212375 -183.63 -86.1198 -171.562
lowerback -13.2562 2.97907 -1.35686
upperback 4.68018 4.61453 -3.49869
thorax 12.8355 2.21295 -1.98413
lowerneck -3.11451 -4.30043 4.69892
upperneck 23.15 -7.22519 0.189981
head 7.47481 -3.31045 -1.2775
rclavicle -2.38542e-014 -1.11319e-014
rhumerus -4.01335 -4.17258 -63.7334
rradius 115.752
rwrist -27.1675
rhand -13.3463 8.74324
rfingers 7.12502
rthumb 12.7593 -20.8469
lclavicle -2.38542e-014 -1.11319e-014
lhumerus -27.5553 19.8922 75.2567
lradius 15.8896
lwrist -43.2317
lhand -15.3258 -5.96433
lfingers 7.12502
lthumb 10.8505 23.7354
rfemur -13.1104 -13.2746 17.1238
rtibia 25.2614
rfoot -7.49445 22.4253
rtoes 6.58047
lfemur -10.7137 15.3083 -16.9048
ltibia 23.7675
lfoot -9.7907 -13.4436
ltoes 2.70729
170
root -21.4953 19.4454 0.209559 -183.46 -86.0314 -171.733
lowerback -13.2474 2.95688 -1.30099
upperback 4.71647 4.57044 -3.44334
thorax 12.8696 2.19425 -1.96512
lowerneck -3.08398 -4.26715 4.71571
upperneck 23.1817 -7.17866 0.160805
head 7.47912 -3.29014 -1.28651
rclavicle 1.19271e-015 -3.18055e-015
rhumerus -4.50396 -4.02554 -63.8194
rradius 116.001
rwrist -27.0601
rhand -13.4513 8.7162
rfingers 7.12502
rthumb 12.6581 -20.8802
lclavicle 1.19271e-015 -3.18055e-015
lhumerus -27.4696 19.6466 75.4807
lradius 16.0579
lwrist -43.0184
lhand -15.3691 -5.96617
lfingers 7.12502
lthumb 10.8088 23.7357
rfemur -13.1353 -13.3328 17.1317
rtibia 25.2761
rfoot -7.43912 22.5694
rtoes 6.58321
lfemur -10.6939 15.2294 -16.9031
ltibia 23.7526
lfoot -9.8246 -13.2843
ltoes 2.71599
171
root -21.4947 19.4458 0.206574 -183.301 -85.9429 -171.905
lowerback -13.1997 2.93693 -1.24319
upperback 4.74 4.52735 -3.39256
thorax 12.8658 2.17681 -1.95372
lowerneck -3.04064 -4.23445 4.69503
upperneck 23.2384 -7.14214 0.179863
head 7.49269 -3.27381 -1.27479
rclavicle 1.63003e-014 2.54444e-014
rhumerus -4.99269 -3.87432 -63.914
rradius 116.248
rwrist -26.9022
rhand -13.3943 8.71771
rfingers 7.12502
rthumb 12.7131 -20.8753
lclavicle 1.63003e-014 2.54444e-014
lhumerus -27.3834 19.2933 75.724
lradius 16.2024
lwrist -42.6904
lhand -15.4381 -5.9587
lfingers 7.12502
lthumb 10.7422 23.7466
rfemur -13.1471 -13.4176 17.1375
rtibia 25.2893
rfoot -7.35478 22.7344
rtoes 6.68566
lfemur -10.666 15.192 -16.8925
ltibia 23.7408
lfoot -9.85004 -13.1627
ltoes 2.68381
172
root -21.4947 19.4453 0.203655 -182.924 -85.8557 -172.274
lowerback -13.1993 2.90556 -1.21022
upperback 4.77358 4.47448 -3.33167
thorax 12.899 2.15177 -1.91753
lowerneck -3.01965 -4.19812 4.65299
upperneck 23.2866 -7.09096 0.16884
head 7.50686 -3.25416 -1.26872
rclavicle 3.20043e-014 -3.97569e-014
rhumerus -5.42741 -3.67702 -63.9953
rradius 116.464
rwrist -26.6922
rhand -13.3971 8.75392
rfingers 7.12502
rthumb 12.7104 -20.8393
lclavicle 3.20043e-014 -3.97569e-014
lhumerus -27.3021 19.0929 75.9478
lradius 16.3558
lwrist -42.4427
lhand -15.4995 -5.95661
lfingers 7.12502
lthumb 10.6829 23.7518
rfemur -13.1803 -13.4493 17.1315
rtibia 25.3043
rfoot -7.28877 22.8499
rtoes 6.81435
lfemur -10.6576 15.1152 -16.9101
ltibia 23.7283
lfoot -9.88042 -12.9879
ltoes 2.68137
173
root -21.4948 19.4449 0.200839 -182.814 -85.7659 -172.399
lowerback -13.1746 2.88818 -1.15781
upperback 4.80819 4.43572 -3.26722
thorax 12.9205 2.135 -1.88586
lowerneck -2.98196 -4.17146 4.59349
upperneck 23.3218 -7.05862 0.198836
head 7.51578 -3.24193 -1.24694
rclavicle -2.70347e-014 1.59028e-014
rhumerus -5.85248 -3.5111 -64.0562
rradius 116.634
rwrist -26.4668
rhand -13.4087 8.85511
rfingers 7.12502
rthumb 12.6992 -20.7388
lclavicle -2.70347e-014 1.59028e-014
lhumerus -27.2263 18.8799 76.1691
lradius 16.4984
lwrist -42.2187
lhand -15.5681 -5.96137
lfingers 7.12502
lthumb 10.6168 23.7504
rfemur -13.1913 -13.5648 17.1366
rtibia 25.3208
rfoot -7.2059 23.0491
rtoes 6.92915
lfemur -10.6257 15.0614 -16.902
ltibia 23.7176
lfoot -9.92897 -12.8389
ltoes 2.55416
174
root -21.4947 19.445 0.197435 -182.658 -85.6772 -172.553
lowerback -13.1601 2.87512 -1.09822
upperback 4.83793 4.40399 -3.22648
thorax 12.9458 2.12316 -1.88236
lowerneck -2.93639 -4.1467 4.61973
upperneck 23.3474 -7.02859 0.190257
head 7.51575 -3.22748 -1.25138
rclavicle -9.34288e-015 -1.66979e-014
rhumerus -6.25104 -3.37137 -64.1673
rradius 116.741
rwrist -26.1912
rhand -13.3829 9.01147
rfingers 7.12502
rthumb 12.7241 -20.5809
lclavicle -9.34288e-015 -1.66979e-014
lhumerus -27.1222 18.5719 76.3817
lradius 16.63
lwrist -41.9033
lhand -15.6423 -5.95427
lfingers 7.12502
lthumb 10.5452 23.7612
rfemur -13.221 -13.6365 17.1466
rtibia 25.3386
rfoot -7.14514 23.2055
rtoes 6.93565
lfemur -10.6096 14.9981 -16.8994
ltibia 23.7046
lfoot -9.95818 -12.6946
ltoes 2.56291
175
root -21.4942 19.4446 0.19421 -182.533 -85.5813 -172.693
lowerback -13.1314 2.85376 -1.05294
upperback 4.87991 4.36127 -3.16423
thorax 12.9729 2.10395 -1.8502
lowerneck -2.9043 -4.1172 4.54725
upperneck 23.3526 -6.99189 0.237879
head 7.51687 -3.21283 -1.22088
rclavicle -1.8487e-014 3.33958e-014
rhumerus -6.58753 -3.20691 -64.2425
rradius 116.835
rwrist -25.9544
rhand -13.3847 9.17301
rfingers 7.12502
rthumb 12.7224 -20.4194
lclavicle -1.8487e-014 3.33958e-014
lhumerus -27.0292 18.3443 76.6094
lradius 16.7709
lwrist -41.5984
lhand -15.6999 -5.98246
lfingers 7.12502
lthumb 10.4897 23.7358
rfemur -13.2309 -13.6754 17.1494
rtibia 25.3516
rfoot -7.04994 23.341
rtoes 7.12939
lfemur -10.5782 14.985 -16.8908
ltibia 23.6973
lfoot -9.97804 -12.5752
ltoes 2.56234
176
root -21.4942 19.4446 0.190521 -182.575 -85.4772 -172.658
lowerback -13.1045 2.83671 -0.997232
upperback 4.90604 4.32173 -3.09855
thorax 12.9834 2.0871 -1.81932
lowerneck -2.85507 -4.08896 4.47736
upperneck 23.3868 -6.95875 0.279368
head 7.52419 -3.20051 -1.19326
rclavicle -2.5842e-014 -2.38542e-014
rhumerus -6.90527 -3.05343 -64.2841
rradius 116.906
rwrist -25.7631
rhand -13.3398 9.33345
rfingers 7.12502
rthumb 12.7656 -20.2563
lclavicle -2.5842e-014 -2.38542e-014
lhumerus -26.967 18.1273 76.8159
lradius 16.9055
lwrist -41.2899
lhand -15.8103 -6.01386
lfingers 7.12502
lthumb 10.3832 23.7098
rfemur -13.2479 -13.7389 17.1747
rtibia 25.3625
rfoot -6.96717 23.4985
rtoes 7.22928
lfemur -10.5558 14.9384 -16.8681
ltibia 23.6896
lfoot -10.0255 -12.4205
ltoes 2.43263
177
root -21.4935 19.4443 0.187108 -182.474 -85.3954 -172.773
lowerback -13.0662 2.8214 -0.94387
upperback 4.93441 4.28635 -3.05083
thorax 12.9913 2.07287 -1.80646
lowerneck -2.80041 -4.06874 4.4519
upperneck 23.4063 -6.93683 0.307485
head 7.52351 -3.1913 -1.17747
rclavicle 1.2921e-014 -6.2816e-014
rhumerus -7.22515 -2.92899 -64.3384
rradius 116.965
rwrist -25.5615
rhand -13.3187 9.4781
rfingers 7.12502
rthumb 12.7859 -20.1104
lclavicle 1.2921e-014 -6.2816e-014
lhumerus -26.8926 17.8655 77.0141
lradius 17.032
lwrist -40.9542
lhand -15.9128 -6.05567
lfingers 7.12502
lthumb 10.2843 23.6729
rfemur -13.2493 -13.7491 17.1823
rtibia 25.373
rfoot -6.93585 23.5934
rtoes 7.2331
lfemur -10.5296 14.8802 -16.8594
ltibia 23.6853
lfoot -10.0546 -12.2691
ltoes 2.42371
178
root -21.4931 19.4445 0.183311 -182.498 -85.299 -172.741
lowerback -13.0755 2.80123 -0.89142
upperback 4.97662 4.24477 -2.98524
thorax 13.0423 2.05438 -1.77274
lowerneck -2.77512 -4.04391 4.38848
upperneck 23.4158 -6.90263 0.330196
head 7.5257 -3.17898 -1.15695
rclavicle 3.83654e-014 1.03368e-014
rhumerus -7.46033 -2.79075 -64.3822
rradius 117.013
rwrist -25.3681
rhand -13.2898 9.63297
rfingers 7.12502
rthumb 12.8138 -19.9538
lclavicle 3.83654e-014 1.03368e-014
lhumerus -26.7882 17.7388 77.2067
lradius 17.1294
lwrist -40.7224
lhand -16.0472 -6.16626
lfingers 7.12502
lthumb 10.1546 23.5687
rfemur -13.2821 -13.7905 17.2121
rtibia 25.3838
rfoot -6.8858 23.7222
rtoes 7.29358
lfemur -10.5231 14.8341 -16.841
ltibia 23.6778
lfoot -10.0895 -12.1205
ltoes 2.3928
179
root -21.4921 19.4443 0.178195 -182.39 -85.2049 -172.862
lowerback -13.0352 2.79052 -0.858547
upperback 5.00508 4.21831 -2.92978
thorax 13.0471 2.0422 -1.73771
lowerneck -2.73792 -4.0256 4.33708
upperneck 23.4587 -6.88677 0.372667
head 7.53715 -3.17301 -1.13375
rclavicle -4.77083e-015 -1.19271e-014
rhumerus -7.72105 -2.67614 -64.4291
rradius 117.047
rwrist -25.2076
rhand -13.2653 9.78735
rfingers 7.12502
rthumb 12.8375 -19.7979
lclavicle -4.77083e-015 -1.19271e-014
lhumerus -26.7087 17.5418 77.397
lradius 17.231
lwrist -40.4712
lhand -16.1675 -6.19803
lfingers 7.12502
lthumb 10.0385 23.5426
rfemur -13.2903 -13.8049 17.2257
rtibia 25.3951
rfoot -6.8355 23.8229
rtoes 7.35383
lfemur -10.4974 14.8921 -16.8244
ltibia 23.6731
lfoot -10.1112 -12.075
ltoes 2.26345
180
root -21.4913 19.4442 0.174295 -182.274 -85.1158 -172.983
lowerback -13.0036 2.7784 -0.809258
upperback 5.02567 4.18807 -2.88394
thorax 13.0501 2.03012 -1.72313
lowerneck -2.65757 -4.01376 4.28046
upperneck 23.4583 -6.87649 0.427131
head 7.52709 -3.17044 -1.10384
rclavicle -3.37934e-015 1.59028e-015
rhumerus -7.95701 -2.56172 -64.488
rradius 117.067
rwrist -25.0329
rhand -13.2253 9.917
rfingers 7.12502
rthumb 12.876 -19.6658
lclavicle -3.37934e-015 1.59028e-015
lhumerus -26.6502 17.299 77.5837
lradius 17.3513
lwrist -40.1619
lhand -16.237 -6.18268
lfingers 7.12502
lthumb 9.97147 23.5611
rfemur -13.3055 -13.7542 17.2345
rtibia 25.4103
rfoot -6.813 23.8704
rtoes 7.39416
lfemur -10.4756 14.8603 -16.8165
ltibia 23.6625
lfoot -10.1298 -11.9439
ltoes 2.27811
